<?xml version="1.0" standalone="no"?>
<!DOCTYPE svg PUBLIC "-//W3C//DTD SVG 20010904//EN"
 "http://www.w3.org/TR/2001/REC-SVG-20010904/DTD/svg10.dtd">
<svg version="1.0" xmlns="http://www.w3.org/2000/svg"
 width="2797.000000pt" height="2797.000000pt" viewBox="0 0 2797.000000 2797.000000"
 preserveAspectRatio="xMidYMid meet">
<metadata>
Created by potrace 1.11, written by Peter Selinger 2001-2013
</metadata>
<g transform="translate(0.000000,2797.000000) scale(0.100000,-0.100000)"
fill="#000000" stroke="none">
<path d="M3630 27955 c-119 -32 -219 -111 -272 -212 -43 -84 -70 -212 -71
-338 -1 -114 7 -227 17 -244 3 -5 -27 2 -67 14 -109 35 -212 50 -328 49 -301
-4 -477 -198 -477 -523 0 -264 162 -430 511 -521 41 -11 98 -22 128 -26 30 -3
57 -8 60 -10 29 -17 444 -23 664 -10 116 6 119 6 93 -11 -27 -17 -48 -52 -48
-79 0 -9 7 -31 16 -50 17 -35 69 -59 102 -47 11 5 8 -4 -10 -28 -56 -76 -73
-128 -73 -225 0 -83 3 -95 34 -157 60 -118 150 -182 287 -202 l71 -10 -80
-135 c-44 -74 -102 -171 -128 -215 l-47 -80 19 -31 c135 -225 259 -600 294
-894 3 -25 8 -54 10 -65 24 -116 25 -674 1 -802 -2 -10 -7 -43 -10 -73 -4 -30
-8 -66 -11 -80 -2 -14 -6 -41 -9 -60 -3 -19 -15 -82 -26 -140 -110 -548 -307
-1002 -595 -1370 -42 -53 -242 -248 -282 -275 -48 -31 -51 -40 -25 -69 86 -97
292 -488 395 -751 45 -113 131 -368 142 -419 1 -6 5 -18 8 -26 5 -13 41 -173
51 -225 3 -11 11 -54 20 -95 8 -41 20 -113 26 -160 6 -47 13 -96 15 -110 25
-170 35 -520 20 -715 -8 -114 -23 -263 -30 -305 -1 -8 -6 -35 -10 -60 -3 -25
-9 -58 -11 -75 -9 -54 -53 -268 -79 -385 -15 -63 -28 -122 -30 -130 -1 -8 -13
-55 -25 -105 -12 -49 -23 -97 -25 -105 -2 -8 -20 -73 -40 -145 -20 -71 -38
-138 -40 -147 -9 -43 -117 -378 -135 -423 -5 -11 -14 -38 -21 -60 -7 -22 -17
-44 -21 -49 -4 -6 -8 -16 -8 -23 0 -13 -82 -225 -115 -298 -7 -16 -23 -52 -35
-80 -79 -180 -220 -437 -307 -560 -24 -32 -43 -62 -43 -65 0 -3 41 -53 91
-110 388 -446 983 -1034 1489 -1470 41 -36 77 -67 80 -70 44 -45 506 -423 739
-605 471 -367 1155 -839 1631 -1124 74 -44 140 -84 145 -89 6 -4 93 -55 195
-113 159 -91 277 -157 525 -292 75 -41 670 -337 754 -375 62 -28 186 -83 386
-172 162 -72 512 -211 720 -287 208 -76 556 -192 625 -208 8 -2 44 -13 80 -24
66 -20 250 -71 308 -85 355 -86 412 -99 487 -112 17 -2 44 -9 60 -14 17 -5 64
-14 105 -20 41 -7 84 -14 95 -16 49 -10 89 -16 295 -49 14 -2 43 -6 65 -9 22
-3 58 -8 80 -11 22 -3 58 -7 80 -9 73 -8 150 -17 183 -22 19 -2 71 -7 115 -10
45 -3 98 -7 117 -9 252 -27 1103 -27 1315 0 17 2 64 6 105 9 115 9 368 39 430
50 14 3 45 8 70 11 48 6 77 10 155 25 28 5 64 11 80 14 51 7 328 66 360 76 17
5 41 11 55 14 14 2 45 9 70 16 25 7 52 13 61 15 12 2 268 76 350 101 11 3 25
-11 45 -42 39 -63 161 -255 174 -274 43 -65 60 -91 60 -94 0 -2 24 -40 52 -84
29 -44 86 -132 125 -194 40 -62 113 -176 162 -253 85 -132 177 -276 204 -319
44 -72 146 -230 178 -279 22 -32 39 -60 39 -62 0 -2 11 -21 25 -42 14 -21 30
-45 35 -53 6 -8 45 -70 88 -137 42 -67 118 -186 167 -263 50 -77 107 -168 128
-202 41 -64 240 -376 312 -488 23 -36 68 -107 101 -158 32 -51 80 -126 105
-165 50 -78 116 -182 186 -292 25 -38 64 -99 86 -135 66 -102 260 -408 277
-435 8 -13 80 -126 160 -250 80 -124 154 -240 165 -259 11 -18 100 -159 198
-312 98 -153 266 -416 373 -584 107 -168 306 -479 442 -692 136 -213 258 -405
272 -427 14 -23 60 -96 103 -163 43 -68 107 -168 142 -223 35 -55 68 -105 74
-112 6 -7 11 -15 11 -18 0 -3 24 -43 53 -88 88 -134 151 -232 423 -659 142
-224 276 -433 296 -465 21 -32 41 -65 45 -73 3 -8 9 -17 13 -20 5 -4 41 -61
191 -298 103 -164 562 -882 624 -977 50 -77 97 -134 156 -188 354 -331 754
-433 1129 -290 8 3 20 7 25 8 24 6 184 82 235 112 30 18 60 33 65 32 6 0 39
-36 75 -81 88 -109 225 -244 296 -293 33 -22 61 -42 64 -45 9 -9 54 -33 130
-71 124 -60 271 -103 430 -125 73 -10 313 -11 397 -2 121 14 312 55 416 89
l94 31 49 86 c27 48 54 98 60 112 6 14 20 46 32 71 67 147 120 321 148 484 14
83 13 388 -2 469 -20 108 -75 271 -126 368 -39 76 -138 219 -220 319 -21 25
-38 49 -38 52 0 3 8 14 19 24 43 41 151 185 205 272 102 165 147 307 151 476
4 200 -37 366 -143 580 -92 187 -59 152 -1002 1075 -59 58 -282 277 -496 487
-214 209 -453 443 -530 520 -78 76 -312 305 -520 509 -209 204 -447 438 -531
520 -83 82 -314 309 -513 504 -199 195 -421 413 -494 484 -72 70 -301 295
-509 500 -209 204 -437 427 -507 496 -70 69 -300 294 -510 500 -210 206 -441
433 -513 504 -73 71 -305 298 -517 506 -212 208 -441 433 -510 500 -69 67
-298 292 -510 500 -212 208 -450 442 -529 519 l-145 141 28 53 c16 28 42 76
58 106 36 64 156 306 188 376 13 28 36 79 52 115 165 360 341 874 453 1320 36
143 98 427 109 505 4 22 8 47 11 55 2 8 6 33 10 55 3 22 7 47 10 55 2 8 6 35
9 60 3 25 8 56 11 70 3 14 8 45 11 70 3 25 7 55 9 68 2 13 7 53 11 90 3 37 8
70 10 73 2 3 6 42 9 85 3 43 8 88 9 99 2 11 7 61 11 110 4 50 9 106 11 125 12
129 19 366 18 695 0 425 -9 644 -39 945 -2 25 -7 77 -11 115 -3 39 -8 78 -9
87 -2 9 -7 48 -10 85 -4 37 -9 75 -10 83 -1 8 -6 40 -10 70 -3 30 -8 66 -10
80 -2 14 -7 45 -10 70 -6 46 -31 205 -40 250 -7 43 -37 214 -42 245 -3 17 -11
62 -19 100 -8 39 -17 84 -20 100 -3 17 -17 84 -30 150 -23 108 -32 150 -64
290 -5 22 -19 81 -30 130 -11 50 -25 106 -30 125 -5 19 -33 123 -61 230 -78
300 -245 868 -279 945 -4 11 -10 29 -13 40 -23 95 -347 973 -407 1100 -5 11
-39 92 -75 180 -37 88 -75 178 -85 200 -10 22 -27 60 -38 85 -51 114 -62 140
-95 211 -153 335 -441 911 -576 1148 -22 40 -41 74 -41 76 0 4 -136 244 -150
265 -6 8 -13 22 -17 30 -4 8 -44 78 -90 154 -46 76 -83 140 -83 142 0 15 -419
664 -540 837 -30 43 -62 88 -70 101 -39 57 -196 273 -210 289 -9 9 -34 42 -56
72 -37 52 -59 65 -80 46 -13 -12 -211 -84 -314 -115 -218 -64 -561 -137 -763
-161 -23 -3 -53 -7 -66 -10 -13 -2 -49 -7 -80 -10 -31 -4 -67 -8 -81 -10 -14
-2 -56 -7 -95 -10 -38 -4 -86 -8 -105 -10 -19 -2 -73 -6 -120 -10 -47 -3 -110
-8 -140 -10 -287 -22 -1038 -22 -1145 0 -11 3 -47 7 -79 10 -74 7 -110 12
-211 30 -44 8 -95 17 -112 20 -227 38 -599 157 -863 275 -214 95 -612 319
-650 365 -7 8 -16 15 -21 15 -11 0 -187 132 -301 227 -51 42 -141 125 -201
184 l-107 107 -68 -56 c-258 -213 -641 -374 -1065 -447 -15 -3 -39 -7 -54 -10
-169 -29 -338 -40 -618 -40 -221 1 -362 7 -446 21 -14 2 -41 6 -60 8 -33 5
-69 10 -154 22 -49 8 -143 28 -270 58 -39 10 -112 31 -177 52 -43 14 -80 25
-83 25 -11 0 -257 104 -330 141 -193 97 -367 209 -478 308 -37 33 -74 60 -81
60 -7 0 -116 -35 -243 -79 l-230 -78 7 32 c25 109 -18 253 -100 335 -108 108
-293 137 -427 67 -33 -17 -33 -17 -24 5 20 54 -18 115 -77 122 -24 4 -44 -4
-83 -31 -28 -19 -49 -30 -45 -25 12 19 87 291 100 362 2 14 11 54 19 90 8 36
18 90 22 120 4 30 9 64 11 75 27 141 22 436 -8 550 -5 22 -11 47 -13 55 -14
69 -86 194 -143 246 -48 44 -133 89 -202 107 -69 17 -250 19 -310 2z"/>
</g>
</svg>
